# xmcd
#
# Track frame offsets: 
#        150
#        17530
#        32457
#        57340
#        82907
#        99737
#        116157
#        142467
#        162317
#        181592
#        208515
#        222202
#
# Disc length: 3192 seconds
#
# Revision: 0
# Processed by: cddbd v1.5.2PL0 Copyright (c) Steve Scherf et al.
# Submitted via: ExactAudioCopy v0.99pb5
#
DISCID=a10c760c
DTITLE=The Poet Game - Greg Brown
DYEAR=1994
DGENRE=Country
TTITLE0=Brand New '64 Dodge
TTITLE1=Boomtown
TTITLE2=The Poet Game
TTITLE3=Ballingall Hotel
TTITLE4=One Wrong Turn
TTITLE5=Jesus And Elvis
TTITLE6=Sadness
TTITLE7=Lately
TTITLE8=Lord I Have Made You A Place In My Heart
TTITLE9=My New Book
TTITLE10=Driftless
TTITLE11=Here In The Going Going Gone
EXTD=High End Recording by Red House Records, Inc.
EXTT0=
EXTT1=
EXTT2=
EXTT3=
EXTT4=
EXTT5=
EXTT6=
EXTT7=
EXTT8=
EXTT9=
EXTT10=
EXTT11=
PLAYORDER=
